<?xml version="1.0" encoding="utf-8"?>
<!DOCTYPE svg PUBLIC "-//W3C//DTD SVG 1.0//EN" "http://www.w3.org/TR/2001/REC-SVG-20010904/DTD/svg10.dtd">
<svg version="1.0" xmlns="http://www.w3.org/2000/svg" width="1280px" height="1280px" viewBox="0 0 1280 1280" preserveAspectRatio="xMidYMid meet">
 <g fill="#2996e0">
  <path d="M496.5 802 c-43.1 -9.1 -79.5 -40.4 -93.4 -80.3 -6.9 -19.7 -6.9 -20.4 -7.2 -99.7 -0.1 -39.3 -0.1 -73.2 0 -75.2 l0.1 -3.8 46.3 0 46.4 0 3.4 4.8 c1.8 2.6 4.5 5.9 5.9 7.3 1.4 1.5 9.9 11.1 19 21.3 21 23.8 26 27.1 40.7 26.8 11.8 -0.1 19.7 -4.6 30.8 -17.2 3.9 -4.3 13.7 -15.6 22 -25 l15 -17 10.8 0 10.8 0 -0.4 76.3 c-0.3 73.1 -0.4 76.6 -2.4 85.3 -4.2 18.1 -14.1 38.6 -25.8 53 -18 22.3 -46.2 38.8 -75 44 -11.7 2.1 -35.7 1.7 -47 -0.6z m45.5 -32.6 c6.9 -1.5 12 -4.4 12 -6.8 0 -0.7 -0.9 -2.1 -2 -3.1 -1.9 -1.7 -2.3 -1.7 -7.8 -0.1 -3.2 0.9 -6.7 1.6 -7.8 1.6 -1.1 0 -3.1 1.1 -4.4 2.5 l-2.3 2.5 2.3 2.5 c1.3 1.4 2.5 2.5 2.7 2.5 0.2 0 3.5 -0.7 7.3 -1.6z m36.2 -17.1 c16.2 -13 28.9 -32.5 34.5 -53 2.5 -9.4 2.7 -11.1 3.1 -38.8 l0.4 -29 -2.6 -2.4 -2.6 -2.4 -2.5 2.3 -2.5 2.3 0 26.1 c0 29.6 -1.2 40 -6.1 52.6 -4.4 11.5 -11.2 21.3 -21.7 31.1 -5.1 4.8 -9.2 9 -9.2 9.4 0 1.4 3.2 4.5 4.6 4.5 0.7 0 2.7 -1.2 4.6 -2.7z"/>
  <path d="M664 676.5 c0 -5 0.2 -5.5 2.3 -5.5 1.2 0.1 42.5 -0.1 91.7 -0.3 102.6 -0.4 96.2 0.2 105.6 -9.2 9.1 -9 8.4 1.3 8.4 -132.6 0 -89.6 -0.3 -117.8 -1.2 -118.1 -0.6 -0.2 -0.9 -1.2 -0.5 -2.1 0.5 -1.3 1.9 -1.7 5.6 -1.7 2.7 0 5.6 0.3 6.5 0.6 1.4 0.6 1.6 11.8 1.6 117.3 0 79.2 -0.3 118.6 -1.1 122.6 -3.1 16.8 -14.1 28.7 -30.4 33 -5.1 1.3 -18.4 1.5 -97.2 1.5 l-91.3 0 0 -5.5z"/>
  <path d="M664 614 l0 -28 7.6 0 c7 0 7.8 0.2 10.5 2.9 l2.9 2.9 0 22.5 0 22.5 -3.1 2.6 c-2.7 2.3 -3.9 2.6 -10.5 2.6 l-7.4 0 0 -28z"/>
  <path d="M706.9 638.9 l-2.9 -3.1 0 -21.7 c0.1 -29.6 -1.5 -28.1 29 -28.1 30.5 0 28.9 -1.5 29 28.3 l0 21.9 -3.1 2.9 -3.1 2.9 -23 0 -23 0 -2.9 -3.1z"/>
  <path d="M550.2 583.5 c-1.8 -0.8 -3.8 -2 -4.5 -2.7 -0.7 -0.7 -4.2 -4.5 -7.7 -8.3 -29.8 -32.4 -33 -37 -31.1 -44.3 1.3 -4.5 5.5 -8.9 10 -10.2 5.5 -1.5 10 0.8 21 11 11.2 10.4 16.1 14 18.9 14 2.5 0 7.8 -4 18.7 -14.1 5 -4.6 19.8 -18.3 33 -30.4 13.2 -12.1 30 -27.8 37.5 -34.9 19.1 -18.2 24.5 -22.6 27.9 -22.6 4.4 0 8.1 3.5 8.1 7.5 0 3.7 -3.3 8 -25.8 33.8 -5.9 6.8 -12 13.9 -13.7 15.9 -22.6 26.7 -73.3 82.1 -77.3 84.5 -4.3 2.6 -10.1 2.9 -15 0.8z"/>
  <path d="M665.8 568.2 c-1.7 -0.3 -1.8 -2.5 -1.8 -27.8 l0 -27.4 8 0 c7.5 0 8.3 0.2 10.5 2.6 2.5 2.7 2.5 2.7 2.5 24.8 0 24.9 -0.2 25.8 -6.8 27.5 -3.6 0.9 -8.8 1.1 -12.4 0.3z"/>
  <path d="M709.5 567.6 c-5 -2.2 -5.5 -4.6 -5.5 -27.6 l0 -20.8 2.6 -3.1 2.6 -3.1 23.3 0 c22 0 23.4 0.1 25.9 2.1 3.1 2.5 3.3 3.9 0.6 3.9 -3.9 0 -8.1 3 -10.1 7.3 -1.6 3.6 -1.9 6.7 -1.9 22.8 0 16.1 -0.2 18.8 -1.6 19.3 -3.2 1.2 -32.8 0.6 -35.9 -0.8z"/>
  <path d="M667 494.1 c0 -0.8 5.5 -7.7 15.6 -20 2 -2.4 2.2 -2.4 2.8 -0.5 1 3.4 -0.1 14.2 -1.8 16.8 -0.9 1.4 -3.3 3 -5.3 3.5 -4.7 1.3 -11.3 1.4 -11.3 0.2z"/>
  <path d="M710 493.9 c-5.4 -1.9 -6 -4.7 -6 -27.9 l0 -21.2 2.9 -2.9 2.9 -2.9 23 0 23 0 3.1 3.1 3.1 3.1 0 21.5 0 21.5 -2.9 2.9 c-2.3 2.3 -3.9 2.9 -7.3 3 -28 0.6 -39.7 0.6 -41.8 -0.2z"/>
  <path d="M783.6 491.5 l-2.6 -2.4 0 -22.5 0 -22.4 3.1 -2.6 3.1 -2.6 22.7 0 c24.7 0 25.7 0.2 28 5.8 0.9 2 1.1 9.2 0.9 23.6 l-0.3 20.8 -2.8 2.4 c-2.8 2.4 -2.9 2.4 -26.1 2.4 l-23.3 0 -2.7 -2.5z"/>
 </g>
 <g fill="#39bb1e">
  <path d="M755.1 572.4 c-2 -2.5 -2.1 -3.9 -2.1 -23.1 l0 -20.4 2.5 -2.5 c2.4 -2.3 3 -2.5 12.2 -2.2 l9.8 0.3 0.3 4.3 c0.3 4 0.2 4.2 -2.5 4.3 -9 0.5 -10.5 0.7 -11.6 1.8 -1.8 1.8 -1.6 27.3 0.2 29.4 1.2 1.5 5.6 1.7 44.3 1.7 33.4 0 42.9 -0.3 43.2 -1.2 0.3 -0.7 0.7 -7.5 1 -15 0.7 -17.4 1 -16.9 -12.4 -16.7 -5.4 0.1 -10.3 -0.1 -10.8 -0.5 -0.5 -0.3 -0.6 -2.2 -0.3 -4.3 l0.6 -3.8 13.7 -0.3 c13 -0.2 13.7 -0.1 16.2 2 2.8 2.6 2.8 2.5 2.7 30 -0.1 13.8 -0.2 14.8 -2.3 16.8 -2.1 2 -3.2 2 -52.4 2 l-50.3 0 -2 -2.6z"/>
  <path d="M801 563.4 c0 -2.5 7 -22.7 8.4 -24.1 0.6 -0.7 1.7 -0.9 2.3 -0.5 0.9 0.6 0.4 3.4 -2 11.2 -1.9 5.8 -3.9 11.5 -4.6 12.8 -1.4 2.6 -4.1 3 -4.1 0.6z"/>
  <path d="M777.7 561.4 c-0.4 -0.4 -0.7 -3.8 -0.7 -7.5 0 -6.2 -0.2 -6.8 -2.2 -7.1 -3.8 -0.5 -3.2 -2.7 1.4 -4.8 2.3 -1 4.7 -1.5 5.1 -1.1 0.4 0.4 0.6 5.2 0.5 10.7 -0.2 8 -0.6 9.9 -1.8 10.2 -0.9 0.1 -1.9 0 -2.3 -0.4z"/>
  <path d="M785 559.4 c0 -1 2 -3.9 4.5 -6.5 5.7 -6 5.9 -8.4 0.9 -7.6 -2.6 0.5 -3.7 0.2 -4.1 -1 -0.8 -2.1 2.3 -4.3 6.1 -4.3 3.9 0 5.2 0.9 6.4 4.1 1.2 2.9 0.3 4.9 -4.1 9.7 l-3.1 3.2 4.2 0 c3.5 0 4.2 0.3 4.2 2 0 1.8 -0.7 2 -7.5 2 -6.3 0 -7.5 -0.3 -7.5 -1.6z"/>
  <path d="M813.7 560.3 c-1.2 -1.1 -0.8 -1.6 3.9 -6.7 6 -6.5 5.6 -10.8 -0.8 -8.1 -1.2 0.5 -2 0.2 -2.5 -1 -0.8 -2.3 2.1 -4.5 6.2 -4.5 7.4 0 9.1 6.2 3.6 13 l-3.2 4 3.6 0 c2.8 0 3.5 0.4 3.5 2 0 1.8 -0.7 2 -6.8 2 -3.8 0 -7.2 -0.3 -7.5 -0.7z"/>
  <path d="M830.6 559.1 c-2.2 -2.4 -0.8 -3.4 3.7 -2.6 2.7 0.5 3.6 0.3 4.1 -1 1 -2.6 -0.2 -3.5 -4.5 -3.5 -4.3 0 -4.5 -0.6 -3.3 -8.3 l0.7 -3.8 5.6 0.3 c4.2 0.2 5.6 0.7 5.6 1.8 0 0.9 -1.3 1.7 -3.4 2 -4 0.6 -5.5 3 -1.9 3 3.2 0 6.8 3.9 6.8 7.3 0 1.5 -0.9 3.6 -2 4.7 -2.7 2.7 -9 2.7 -11.4 0.1z"/>
  <path d="M783.5 524.8 c-0.3 -2.9 -0.4 -6.4 -0.1 -7.8 0.2 -1.4 0.5 -3.3 0.5 -4.2 0.1 -1.5 1.1 -1.8 6.1 -1.8 4.6 0 6 0.3 6 1.4 0 1 -1.3 1.6 -3.7 1.8 -2.7 0.2 -3.9 0.8 -4.1 2.1 -0.3 1.4 0.4 1.7 3.2 1.7 2.9 0 3.6 0.4 3.6 2 0 1.6 -0.7 2 -3.5 2 -2.8 0 -3.5 0.4 -3.5 2 0 1.6 0.7 2 3.4 2 1.9 0 4.1 0.3 5 0.6 1.1 0.4 2.1 -0.5 3.3 -3 1.6 -3.4 1.6 -3.8 -0.2 -7.3 -1.1 -2.1 -2.1 -4.1 -2.3 -4.5 -0.2 -0.5 0.7 -0.8 2 -0.8 1.6 0 2.9 0.9 3.8 2.6 l1.4 2.5 1.9 -2.5 c1 -1.4 2.7 -2.6 3.8 -2.6 2.4 0 2.4 0.3 -0.3 5 l-2.3 3.9 2.3 4.6 c2.7 5.5 2.7 5.5 0.2 5.5 -1.2 0 -2.6 -1.2 -3.5 -3 -0.9 -1.6 -1.8 -3 -2 -3 -0.2 0 -1.1 1.4 -2 3 -1.5 3 -1.6 3 -10 3 l-8.4 0 -0.6 -5.2z"/>
  <path d="M814 520.5 c0 -10.5 -0.4 -9.9 7 -9.5 3.8 0.1 7 2.9 7 6.1 0 2.9 -3.6 5.9 -7 5.9 -2.8 0 -3 0.3 -3 3.5 0 2.8 -0.4 3.5 -2 3.5 -1.9 0 -2 -0.7 -2 -9.5z"/>
  <path d="M404.8 526.3 l-9.8 -0.4 0 -71.7 c0 -40.4 0.5 -75.8 1 -81.2 4.5 -42.7 32 -81.7 70.6 -100.1 37.4 -17.8 82.5 -16.3 117.1 3.9 28 16.4 46.8 39.6 57.3 70.9 5 15 6 25.4 6 61.5 0 17.8 -0.4 32.8 -0.8 33.4 -0.4 0.6 -5 4.9 -10.3 9.5 -5.3 4.6 -13.8 12.3 -19 17 -12.4 11.2 -57 50.3 -58.7 51.3 -0.8 0.5 -4.1 -1.9 -9.5 -7.1 -4.7 -4.4 -10.9 -9.1 -14.3 -10.8 -5.2 -2.7 -6.9 -3 -14.9 -3 -8.1 0 -9.5 0.3 -14.3 3 -6.9 3.8 -13.3 10.9 -15.9 17.7 l-2 5.3 -13.4 0.6 c-13.7 0.7 -51.6 0.7 -69.1 0.2z m29.6 -71.5 c1.1 -1.9 1.5 -9.8 1.9 -40.8 0.6 -41.2 1.1 -45.5 6.2 -58.2 5.7 -14.1 15.3 -26.7 27 -35.8 6 -4.7 6.8 -7.1 2.9 -9.7 -2 -1.3 -2.7 -1 -9.7 4.7 -12.6 10.1 -23.1 24.8 -29.6 41.4 -6.4 16.2 -7.1 22.8 -7.1 61.9 0 33.6 0 34.1 2.2 36.4 2.7 2.9 4.4 2.9 6.2 0.1z m63.1 -149.3 c2.2 -0.8 5.4 -1.4 7.2 -1.5 1.9 0 4.3 -1 6 -2.4 l2.8 -2.5 -2.6 -2.6 -2.6 -2.7 -7.4 1.8 c-4.7 1.1 -8.2 2.7 -9.8 4.2 l-2.3 2.3 2.3 2.5 c1.2 1.3 2.3 2.4 2.3 2.4 0.1 0 1.9 -0.7 4.1 -1.5z"/>
  <path d="M639 525.9 c0 -1.3 6.2 -8.9 7.3 -8.9 0.4 0 0.7 2.3 0.7 5 l0 5 -4 0 c-2.2 0 -4 -0.5 -4 -1.1z"/>
  <path d="M872.1 412.8 c-0.1 -1.7 -5.7 -1.8 -104 -1.8 l-103.9 0 -0.5 -22.7 c-0.4 -18.1 -0.9 -24.6 -2.6 -31.5 -2.3 -10 -5.2 -19.6 -7.6 -25.2 -0.9 -2.1 -1.3 -4.1 -1 -4.5 0.4 -0.3 28.6 -0.6 62.8 -0.6 l62.2 0 0.5 16.5 c0.5 15.6 0.6 16.7 3.2 21 5.5 9.4 13 14.1 22.2 14.2 8.2 0.1 13.5 -2 19.2 -7.7 7.2 -7.2 8.4 -11.3 8.4 -29.7 l0 -14.8 3.3 0 c1.7 0 7 0.5 11.7 1 20.1 2.3 33.7 15.8 36.9 36.7 1 6.6 1.4 52.9 0.4 49.2 -0.4 -1.5 -4.2 -2.9 -8 -2.9 -0.7 0 -1.8 1 -2.3 2.3 -0.7 1.7 -0.9 1.8 -0.9 0.5z"/>
  <path d="M797.2 366.9 c-2.3 -1.1 -5.2 -3.5 -6.5 -5.3 -2.2 -3 -2.2 -3.6 -2.2 -33.3 0 -29 0.1 -30.3 2.1 -33 7.3 -9.9 20.4 -9.9 27.8 0 1.9 2.5 2.2 4.6 2.6 18.2 0.3 8.5 0.3 22.1 0 30.4 -0.4 13.1 -0.8 15.3 -2.6 17.7 -5.3 7.2 -13.5 9.2 -21.2 5.3z"/>
 </g>
 <g fill="#fdfefc">
  <path d="M529.2 771.7 c-4.4 -4.7 -1.4 -13.7 4.5 -13.7 1.2 0 5 -0.9 8.7 -2 9.8 -3.1 15 -0.7 15 6.7 0 4.9 -3.5 7.7 -12.3 9.7 -9.8 2.2 -13.3 2.1 -15.9 -0.7z"/>
  <path d="M431 766.3 l-5.5 -5.8 5.8 5.5 c3.1 3 5.7 5.6 5.7 5.7 0 0.8 -1 -0.1 -6 -5.4z"/>
  <path d="M608 769.7 c0 -0.2 1.5 -1.6 3.3 -3.3 l3.2 -2.9 -2.9 3.3 c-2.8 3 -3.6 3.7 -3.6 2.9z"/>
  <path d="M571.4 758.3 c-3.3 -0.6 -5.8 -4 -5.8 -7.8 0 -3 1.1 -4.4 9.4 -12.2 10.7 -10 17.5 -19.8 21.9 -31.3 4.9 -12.6 6.1 -23 6.1 -52.6 0 -25.9 0 -26.1 2.3 -28.2 3.2 -3 8.7 -2.9 11.6 0.2 l2.3 2.4 -0.4 31.9 c-0.4 30.8 -0.5 32.1 -3.1 41.6 -3.3 12 -9.6 24.7 -17.4 35.2 -7.8 10.6 -20.4 21.8 -23.8 21.4 -0.5 -0.1 -2 -0.4 -3.1 -0.6z"/>
  <path d="M832.3 670.3 c2.6 -0.2 6.8 -0.2 9.5 0 2.6 0.2 0.4 0.3 -4.8 0.3 -5.2 0 -7.4 -0.1 -4.7 -0.3z"/>
  <path d="M872.5 527.5 c0 -64.3 0.1 -90.5 0.2 -58.2 0.2 32.4 0.2 85 0 117 -0.1 32 -0.2 5.6 -0.2 -58.8z"/>
  <path d="M883.5 506 c0 -76.2 0.1 -107.3 0.2 -69.2 0.2 38 0.2 100.4 0 138.5 -0.1 38 -0.2 6.9 -0.2 -69.3z"/>
  <path d="M534.4 568.8 l-2.9 -3.3 3.3 2.9 c3 2.8 3.7 3.6 2.9 3.6 -0.2 0 -1.6 -1.5 -3.3 -3.2z"/>
  <path d="M395.4 559.5 c0 -5.5 0.1 -7.6 0.3 -4.7 0.2 2.9 0.2 7.4 0 10 -0.2 2.6 -0.3 0.2 -0.3 -5.3z"/>
  <path d="M720.3 568.3 c4.8 -0.2 12.5 -0.2 17 0 4.5 0.1 0.6 0.3 -8.8 0.3 -9.3 0 -13 -0.2 -8.2 -0.3z"/>
  <path d="M852.4 554 c0 -5.8 0.1 -8.1 0.3 -5.2 0.2 2.8 0.2 7.6 0 10.5 -0.2 2.8 -0.3 0.5 -0.3 -5.3z"/>
  <path d="M588 558.5 c1.9 -1.9 3.6 -3.5 3.9 -3.5 0.3 0 -1 1.6 -2.9 3.5 -1.9 1.9 -3.6 3.5 -3.9 3.5 -0.3 0 1 -1.6 2.9 -3.5z"/>
  <path d="M598 547.5 c1.9 -1.9 3.6 -3.5 3.9 -3.5 0.3 0 -1 1.6 -2.9 3.5 -1.9 1.9 -3.6 3.5 -3.9 3.5 -0.3 0 1 -1.6 2.9 -3.5z"/>
  <path d="M442.5 544 l-47 -0.5 46.7 -0.3 c30.3 -0.1 46.9 0.2 47.3 0.8 0.3 0.6 0.5 0.9 0.3 0.8 -0.2 -0.2 -21.4 -0.5 -47.3 -0.8z"/>
  <path d="M832.8 540.3 c1.2 -0.2 3 -0.2 4 0 0.9 0.3 -0.1 0.5 -2.3 0.4 -2.2 0 -3 -0.2 -1.7 -0.4z"/>
  <path d="M608 536.5 c1.9 -1.9 3.6 -3.5 3.9 -3.5 0.3 0 -1 1.6 -2.9 3.5 -1.9 1.9 -3.6 3.5 -3.9 3.5 -0.3 0 1 -1.6 2.9 -3.5z"/>
  <path d="M542.4 533.8 l-2.9 -3.3 3.3 2.9 c3 2.8 3.7 3.6 2.9 3.6 -0.2 0 -1.6 -1.5 -3.3 -3.2z"/>
  <path d="M580 524.5 c1.9 -1.9 3.6 -3.5 3.9 -3.5 0.3 0 -1 1.6 -2.9 3.5 -1.9 1.9 -3.6 3.5 -3.9 3.5 -0.3 0 1 -1.6 2.9 -3.5z"/>
  <path d="M426.3 526.3 c7 -0.2 18.4 -0.2 25.5 0 7 0.1 1.2 0.3 -12.8 0.3 -14 0 -19.8 -0.2 -12.7 -0.3z"/>
  <path d="M395.5 452.5 c0 -40.7 0.1 -57.2 0.2 -36.7 0.2 20.6 0.2 53.9 0 74 -0.1 20.2 -0.2 3.4 -0.2 -37.3z"/>
  <path d="M530.4 522.8 l-2.9 -3.3 3.3 2.9 c1.7 1.7 3.2 3.1 3.2 3.3 0 0.8 -0.8 0.1 -3.6 -2.9z"/>
  <path d="M783.3 521 c0 -2.5 0.2 -3.5 0.4 -2.2 0.2 1.2 0.2 3.2 0 4.5 -0.2 1.2 -0.4 0.2 -0.4 -2.3z"/>
  <path d="M818 517 c0 -2.8 0.3 -3.1 2.8 -2.8 2.1 0.2 2.7 0.8 2.7 2.8 0 2 -0.6 2.6 -2.7 2.8 -2.5 0.3 -2.8 0 -2.8 -2.8z"/>
  <path d="M590 515.7 c0 -0.2 1.5 -1.6 3.3 -3.3 l3.2 -2.9 -2.9 3.3 c-2.8 3 -3.6 3.7 -3.6 2.9z"/>
  <path d="M604 502.5 c1.9 -1.9 3.6 -3.5 3.9 -3.5 0.3 0 -1 1.6 -2.9 3.5 -1.9 1.9 -3.6 3.5 -3.9 3.5 -0.3 0 1 -1.6 2.9 -3.5z"/>
  <path d="M616.5 491 c2.7 -2.7 5.1 -5 5.4 -5 0.3 0 -1.7 2.3 -4.4 5 -2.7 2.8 -5.1 5 -5.4 5 -0.3 0 1.7 -2.2 4.4 -5z"/>
  <path d="M669.3 494.3 c1.5 -0.2 3.7 -0.2 5 0 1.2 0.2 0 0.4 -2.8 0.4 -2.7 0 -3.8 -0.2 -2.2 -0.4z"/>
  <path d="M714.3 494.3 c1.5 -0.2 3.7 -0.2 5 0 1.2 0.2 0 0.4 -2.8 0.4 -2.7 0 -3.8 -0.2 -2.2 -0.4z"/>
  <path d="M730.3 494.3 c1.5 -0.2 3.7 -0.2 5 0 1.2 0.2 0 0.4 -2.8 0.4 -2.7 0 -3.8 -0.2 -2.2 -0.4z"/>
  <path d="M685.2 482 c0 -1.9 0.2 -2.7 0.5 -1.7 0.2 0.9 0.2 2.5 0 3.5 -0.3 0.9 -0.5 0.1 -0.5 -1.8z"/>
  <path d="M646.5 463 c3.3 -3.3 6.2 -6 6.4 -6 0.3 0 -2.1 2.7 -5.4 6 -3.3 3.3 -6.2 6 -6.4 6 -0.3 0 2.1 -2.7 5.4 -6z"/>
  <path d="M426.1 458.4 l-3.1 -2.6 0 -37.3 c0 -42.7 0.7 -48.6 7.1 -65.1 6.3 -16.1 16.8 -31 28.6 -40.6 9.5 -7.7 10.5 -8.2 14.7 -6.4 7 2.9 7.6 9.2 1.4 14.5 -15.7 13.5 -23 22.8 -28.8 36.7 -5.8 14 -6.3 18.3 -6.7 59.7 -0.2 24 -0.7 38.6 -1.4 39.8 -1 2 -4.7 3.9 -7.4 3.9 -0.7 0 -2.7 -1.2 -4.4 -2.6z"/>
  <path d="M659 451.7 c0 -0.2 1.5 -1.6 3.3 -3.3 l3.2 -2.9 -2.9 3.3 c-2.8 3 -3.6 3.7 -3.6 2.9z"/>
  <path d="M802.8 368.3 c1.2 -0.2 3.2 -0.2 4.5 0 1.2 0.2 0.2 0.4 -2.3 0.4 -2.5 0 -3.5 -0.2 -2.2 -0.4z"/>
  <path d="M689.3 326.3 c16.4 -0.2 43 -0.2 59 0 16.1 0.1 2.7 0.2 -29.8 0.2 -32.4 0 -45.6 -0.1 -29.2 -0.2z"/>
  <path d="M833.3 326.3 c1.5 -0.2 3.9 -0.2 5.5 0 1.5 0.2 0.2 0.4 -2.8 0.4 -3 0 -4.3 -0.2 -2.7 -0.4z"/>
  <path d="M488.2 307.7 c-2.7 -2.8 -2.9 -7.7 -0.4 -10.7 2 -2.4 13.5 -5.9 19.8 -6 5.1 0 8.7 3.4 8.7 8.2 0 4 -4.1 7.8 -8.6 7.8 -1.8 0.1 -5 0.7 -7.2 1.5 -5.9 2.2 -9.8 1.9 -12.3 -0.8z"/>
  <path d="M610.5 297.8 l-5 -5.3 5.3 5 c4.8 4.6 5.7 5.5 4.9 5.5 -0.1 0 -2.5 -2.4 -5.2 -5.2z"/>
  <path d="M435 294.5 c1.9 -1.9 3.6 -3.5 3.9 -3.5 0.3 0 -1 1.6 -2.9 3.5 -1.9 1.9 -3.6 3.5 -3.9 3.5 -0.3 0 1 -1.6 2.9 -3.5z"/>
  <path d="M518.8 260.3 c1.8 -0.2 4.5 -0.2 6 0 1.5 0.2 0 0.4 -3.3 0.4 -3.3 0 -4.5 -0.2 -2.7 -0.4z"/>
 </g>
</svg>